# xmcd
#
# Track frame offsets:
#	150
#	21330
#	38691
#	55587
#	74222
#	90369
#	105580
#	122440
#	143618
#	163270
#
# Disc length: 2354 seconds
#
# Revision: 1
# Processed by: cddbd v1.5.2PL0 Copyright (c) Steve Scherf et al.
# Submitted via: audiograbber 1.83.01
#
DISCID=7f09300a
DTITLE=Kiefer Sutherland - Reckless and Me
DYEAR=2019
DGENRE=Blues
TTITLE0=Open Road
TTITLE1=Something You Love
TTITLE2=Faded Pair Of Blue Jeans
TTITLE3=Reckless and Me
TTITLE4=Blame It On Your Heart
TTITLE5=This Is How It's Done
TTITLE6=Agave
TTITLE7=Run To Him
TTITLE8=Saskatchewan
TTITLE9=Song For A Daughter
EXTD=
EXTT0=
EXTT1=
EXTT2=
EXTT3=
EXTT4=
EXTT5=
EXTT6=
EXTT7=
EXTT8=
EXTT9=
PLAYORDER=
